HIERARCHY
ROOT joint_Root
{
	OFFSET 0.0 0.0 0.0
	CHANNELS 6 Xposition Yposition Zposition Zrotation Xrotation Yrotation 
	JOINT Hips
	{
		OFFSET -0.726466 93.3139 -2.00062
		CHANNELS 6 Xposition Yposition Zposition Zrotation Xrotation Yrotation 
		JOINT Spine
		{
			OFFSET 15.7357 0.0 0.0
			CHANNELS 6 Xposition Yposition Zposition Zrotation Xrotation Yrotation 
			JOINT Chest
			{
				OFFSET 8.98455 -0.406207 0.0
				CHANNELS 6 Xposition Yposition Zposition Zrotation Xrotation Yrotation 
				JOINT Neck
				{
					OFFSET 16.3773 0.0 0.0
					CHANNELS 6 Xposition Yposition Zposition Zrotation Xrotation Yrotation 
					JOINT Head
					{
						OFFSET 6.45672 0.0 0.0
						CHANNELS 6 Xposition Yposition Zposition Zrotation Xrotation Yrotation 
						End Site
						{
							OFFSET 0.0 0.0 0.0
						}
					}
				}
				JOINT Shoulder_L
				{
					OFFSET 12.9942 -0.242716 4.98039
					CHANNELS 6 Xposition Yposition Zposition Zrotation Xrotation Yrotation 
					JOINT UpperArm_L
					{
						OFFSET 5.34809 0.0 0.0
						CHANNELS 6 Xposition Yposition Zposition Zrotation Xrotation Yrotation 
						JOINT LowerArm_L
						{
							OFFSET 24.3286 1.87007e-05 0.0
							CHANNELS 6 Xposition Yposition Zposition Zrotation Xrotation Yrotation 
							JOINT Hand_L
							{
								OFFSET 22.2916 0.0 0.0
								CHANNELS 6 Xposition Yposition Zposition Zrotation Xrotation Yrotation 
								End Site
								{
									OFFSET 0.0 0.0 0.0
								}
							}
						}
					}
				}
				JOINT Shoulder_R
				{
					OFFSET 12.9945 -0.242716 -4.98039
					CHANNELS 6 Xposition Yposition Zposition Zrotation Xrotation Yrotation 
					JOINT UpperArm_R
					{
						OFFSET -5.34813 0.0 0.0
						CHANNELS 6 Xposition Yposition Zposition Zrotation Xrotation Yrotation 
						JOINT LowerArm_R
						{
							OFFSET -24.3289 0.000322201 0.0
							CHANNELS 6 Xposition Yposition Zposition Zrotation Xrotation Yrotation 
							JOINT Hand_R
							{
								OFFSET -22.2915 -0.000108084 0.0
								CHANNELS 6 Xposition Yposition Zposition Zrotation Xrotation Yrotation 
								End Site
								{
									OFFSET 0.0 0.0 0.0
								}
							}
						}
					}
				}
			}
		}
		JOINT UpperLeg_L
		{
			OFFSET -2.19248 -6.46944 0.0
			CHANNELS 6 Xposition Yposition Zposition Zrotation Xrotation Yrotation 
			JOINT LowerLeg_L
			{
				OFFSET 39.0811 0.0 -1.23785e-05
				CHANNELS 6 Xposition Yposition Zposition Zrotation Xrotation Yrotation 
				JOINT Foot_L
				{
					OFFSET 40.9854 0.0 -1.26872e-05
					CHANNELS 6 Xposition Yposition Zposition Zrotation Xrotation Yrotation 
					JOINT Toes_L
					{
						OFFSET 11.7543 0.0 0.0
						CHANNELS 6 Xposition Yposition Zposition Zrotation Xrotation Yrotation 
						End Site
						{
							OFFSET 0.0 0.0 0.0
						}
					}
				}
			}
		}
		JOINT UpperLeg_R
		{
			OFFSET -2.19251 6.46944 0.0
			CHANNELS 6 Xposition Yposition Zposition Zrotation Xrotation Yrotation 
			JOINT LowerLeg_R
			{
				OFFSET -39.0811 -0.00228153 -0.0401928
				CHANNELS 6 Xposition Yposition Zposition Zrotation Xrotation Yrotation 
				JOINT Foot_R
				{
					OFFSET -40.9854 0.0 0.0
					CHANNELS 6 Xposition Yposition Zposition Zrotation Xrotation Yrotation 
					JOINT Toes_R
					{
						OFFSET -11.7543 0.0 0.0
						CHANNELS 6 Xposition Yposition Zposition Zrotation Xrotation Yrotation 
						End Site
						{
							OFFSET 0.0 0.0 0.0
						}
					}
				}
			}
		}
	}
}
MOTION
Frames:	8
Frame Time:	0.0333333
0.000000 0.000000 0.000000 0.000000 0.000000 -0.000000 -0.151785 92.353100 -1.106760 87.797100 -1.194330 5.125050 15.735700 0.000005 -0.000001 88.278000 86.132400 -88.641900 8.984550 -0.406207 -0.000000 -0.034940 -0.207620 -0.727433 16.377300 -0.000001 -0.000001 3.905460 -2.712990 2.455610 6.456720 -0.000001 -0.000000 6.103970 -3.603220 -1.632590 12.994200 -0.242716 4.980390 -89.520000 -1.450720 -71.690600 5.348090 -0.000007 -0.000001 -70.331500 36.814700 -11.124400 24.328600 0.000019 0.000005 1.712530 4.362620 -21.456400 22.291600 -0.000001 0.000005 5.878330 5.472490 -5.463690 12.994500 -0.242716 -4.980390 90.181800 -0.519659 -70.712000 -5.348130 -0.000001 -0.000004 -77.975900 -32.728300 -96.739100 -24.328900 0.000322 -0.000009 16.775300 0.437932 -88.548600 -22.291500 -0.000108 -0.000004 20.794500 5.305000 -0.068421 -2.192480 -6.469440 -0.000000 -175.294000 -7.514760 -1.839090 39.081100 -0.000007 -0.000012 -0.101387 0.238955 22.991300 40.985400 -0.000006 -0.000013 0.308302 4.339410 -66.219900 11.754300 -0.000000 0.000003 -0.000048 -0.000546 -16.598800 -2.192510 6.469440 -0.000001 179.741000 13.763700 -179.241000 -39.081100 -0.002282 -0.040193 -0.025388 0.082164 19.261200 -40.985400 0.000008 0.000006 3.674860 7.835110 -65.394900 -11.754300 -0.000006 -0.000006 -0.009032 -0.096259 -20.494000
0.000000 0.000000 0.000000 0.000000 0.000000 -0.000000 -0.154691 92.359100 -1.105250 87.779800 -1.209120 5.054720 15.735700 0.000005 -0.000001 88.349000 86.153700 -88.709400 8.984550 -0.406207 -0.000000 -0.077136 -0.196911 -0.720460 16.377300 -0.000001 -0.000001 3.851540 -2.669000 2.472920 6.456720 -0.000001 -0.000000 6.170120 -3.528090 -1.715390 12.994200 -0.242716 4.980390 -89.535300 -1.399080 -71.625600 5.348090 -0.000007 -0.000001 -70.188100 36.882500 -11.227300 24.328600 0.000019 0.000005 1.669760 4.236990 -21.531800 22.291600 -0.000001 0.000005 5.878850 5.471810 -5.438190 12.994500 -0.242716 -4.980390 90.188000 -0.537068 -70.706200 -5.348130 -0.000001 -0.000004 -77.960300 -32.719900 -96.869700 -24.328900 0.000322 -0.000009 16.644400 0.515806 -88.276200 -22.291500 -0.000108 -0.000004 20.695500 5.303650 -0.030257 -2.192480 -6.469440 -0.000000 -175.271000 -7.600300 -1.893890 39.081100 -0.000007 -0.000012 -0.102437 0.241748 22.964100 40.985400 -0.000006 -0.000013 0.314469 4.390790 -66.205100 11.754300 -0.000000 0.000003 -0.000042 -0.000490 -16.596600 -2.192510 6.469440 -0.000001 179.779000 13.795600 -179.278000 -39.081100 -0.002282 -0.040193 -0.024074 0.078658 19.203100 -40.985400 0.000008 0.000006 3.734150 7.875460 -65.382300 -11.754300 -0.000006 -0.000006 -0.009234 -0.097820 -20.557700
0.000000 0.000000 0.000000 0.000000 0.000000 -0.000000 -0.154783 92.366200 -1.102140 87.775600 -1.198270 4.974250 15.735700 0.000005 -0.000001 88.572700 86.171300 -88.932000 8.984550 -0.406207 -0.000000 -0.111502 -0.165997 -0.718233 16.377300 -0.000001 -0.000001 3.807880 -2.656260 2.492060 6.456720 -0.000001 -0.000000 6.142490 -3.522990 -1.760480 12.994200 -0.242716 4.980390 -89.543300 -1.378490 -71.669100 5.348090 -0.000007 -0.000001 -70.200900 36.808100 -11.195200 24.328600 0.000019 0.000005 1.659610 4.199340 -21.586800 22.291600 -0.000001 0.000005 5.916360 5.474410 -5.535770 12.994500 -0.242716 -4.980390 90.193000 -0.548243 -70.601400 -5.348130 -0.000001 -0.000004 -77.865300 -32.733200 -97.036400 -24.328900 0.000322 -0.000009 16.559000 0.618183 -87.923000 -22.291500 -0.000108 -0.000004 20.689900 5.304970 -0.067584 -2.192480 -6.469440 -0.000000 -175.295000 -7.543870 -1.957740 39.081100 -0.000007 -0.000012 -0.100106 0.236734 22.921800 40.985400 -0.000006 -0.000013 0.302376 4.318480 -66.181700 11.754300 -0.000000 0.000003 -0.000050 -0.000565 -16.599500 -2.192510 6.469440 -0.000001 179.805000 13.768300 -179.335000 -39.081100 -0.002282 -0.040193 -0.024105 0.079015 19.143100 -40.985400 0.000008 0.000006 3.719050 7.858100 -65.346500 -11.754300 -0.000006 -0.000006 -0.008888 -0.095136 -20.448000
0.000000 0.000000 0.000000 0.000000 0.000000 -0.000000 -0.162684 92.373800 -1.126020 87.766700 -1.147380 4.878650 15.735700 0.000005 -0.000001 88.416900 86.186300 -88.768600 8.984550 -0.406207 -0.000000 -0.142064 -0.186406 -0.703292 16.377300 -0.000001 -0.000001 3.729280 -2.667100 2.514110 6.456720 -0.000001 -0.000000 6.073840 -3.522920 -1.789210 12.994200 -0.242716 4.980390 -89.560900 -1.322610 -71.631100 5.348090 -0.000007 -0.000001 -70.188600 36.787900 -11.167100 24.328600 0.000019 0.000005 1.675010 4.223220 -21.657100 22.291600 -0.000001 0.000005 5.835320 5.473900 -5.516550 12.994500 -0.242716 -4.980390 90.193500 -0.547053 -70.522700 -5.348130 -0.000001 -0.000004 -77.589600 -32.861500 -97.030400 -24.328900 0.000322 -0.000009 16.588400 0.677206 -87.729000 -22.291500 -0.000108 -0.000004 20.686700 5.304170 -0.045516 -2.192480 -6.469440 -0.000000 -175.289000 -7.515600 -2.060800 39.081100 -0.000007 -0.000012 -0.102097 0.241823 22.889400 40.985400 -0.000006 -0.000013 0.303681 4.375370 -66.146100 11.754300 -0.000000 0.000003 -0.000045 -0.000512 -16.597500 -2.192510 6.469440 -0.000001 179.869000 13.782100 -179.439000 -39.081100 -0.002282 -0.040193 -0.020477 0.068625 19.126800 -40.985400 0.000008 0.000006 3.899960 7.777290 -65.356100 -11.754300 -0.000006 -0.000006 -0.009302 -0.098349 -20.579400
0.000000 0.000000 0.000000 0.000000 0.000000 -0.000000 -0.157150 92.380500 -1.123660 87.771800 -1.131840 4.859130 15.735700 0.000005 -0.000001 88.356900 86.175100 -88.699500 8.984550 -0.406207 -0.000000 -0.119888 -0.195716 -0.685066 16.377300 -0.000001 -0.000001 3.641680 -2.700300 2.553940 6.456720 -0.000001 -0.000000 6.063180 -3.522340 -1.814150 12.994200 -0.242716 4.980390 -89.561300 -1.323950 -71.665900 5.348090 -0.000007 -0.000001 -70.315800 36.812300 -11.072800 24.328600 0.000019 0.000005 1.679670 4.248380 -21.595300 22.291600 -0.000001 0.000005 5.776570 5.474260 -5.530070 12.994500 -0.242716 -4.980390 90.215700 -0.608614 -70.487600 -5.348130 -0.000001 -0.000004 -76.864300 -33.220300 -96.416500 -24.328900 0.000322 -0.000009 16.526000 0.644242 -87.830900 -22.291500 -0.000108 -0.000004 21.191500 5.308740 -0.173687 -2.192480 -6.469440 -0.000000 -175.302000 -7.517430 -2.058670 39.081100 -0.000007 -0.000012 -0.100183 0.237859 22.840200 40.985400 -0.000006 -0.000013 0.311417 4.395740 -66.120500 11.754300 -0.000000 0.000003 -0.000045 -0.000520 -16.597800 -2.192510 6.469440 -0.000001 179.882000 13.786500 -179.443000 -39.081100 -0.002282 -0.040193 -0.018256 0.062367 19.085000 -40.985400 0.000008 0.000006 3.920430 7.735000 -65.333700 -11.754300 -0.000006 -0.000006 -0.008879 -0.095059 -20.444900
0.000000 0.000000 0.000000 0.000000 0.000000 -0.000000 -0.132379 92.376600 -1.124460 87.774300 -1.171340 4.917590 15.735700 0.000005 -0.000001 88.900900 86.140500 -89.221800 8.984550 -0.406207 -0.000000 -0.048686 -0.126154 -0.641528 16.377300 -0.000001 -0.000001 3.550720 -2.726370 2.613830 6.456720 -0.000001 -0.000000 6.022260 -3.528540 -1.929950 12.994200 -0.242716 4.980390 -89.582000 -1.263660 -71.693800 5.348090 -0.000007 -0.000001 -70.406800 36.901600 -10.982900 24.328600 0.000019 0.000005 1.720230 4.361000 -21.551400 22.291600 -0.000001 0.000005 5.796730 5.474930 -5.555730 12.994500 -0.242716 -4.980390 90.207500 -0.585085 -70.467700 -5.348130 -0.000001 -0.000004 -75.426800 -33.894100 -95.035900 -24.328900 0.000322 -0.000009 16.834300 0.504684 -88.333500 -22.291500 -0.000108 -0.000004 21.725200 5.313560 -0.311185 -2.192480 -6.469440 -0.000000 -175.312000 -7.528130 -2.005180 39.081100 -0.000007 -0.000012 -0.101912 0.241678 22.864600 40.985400 -0.000006 -0.000013 0.313530 4.333350 -66.137700 11.754300 -0.000000 0.000003 -0.000047 -0.000533 -16.598300 -2.192510 6.469440 -0.000001 179.843000 13.813100 -179.397000 -39.081100 -0.002282 -0.040193 -0.017072 0.058801 19.128500 -40.985400 0.000008 0.000006 3.977680 7.805100 -65.370800 -11.754300 -0.000006 -0.000006 -0.009083 -0.096651 -20.510000
0.000000 0.000000 0.000000 0.000000 0.000000 -0.000000 -0.117751 92.379600 -1.155090 87.750900 -1.231930 4.879570 15.735700 0.000005 -0.000001 89.449500 86.121000 -89.728900 8.984550 -0.406207 -0.000000 -0.008430 -0.055562 -0.558510 16.377300 -0.000001 -0.000001 3.414740 -2.663380 2.668740 6.456720 -0.000001 -0.000000 5.906510 -3.406050 -2.126470 12.994200 -0.242716 4.980390 -89.607400 -1.184190 -71.656000 5.348090 -0.000007 -0.000001 -70.498200 37.006600 -10.914100 24.328600 0.000019 0.000005 1.685750 4.274930 -21.544200 22.291600 -0.000001 0.000005 5.743440 5.474130 -5.525210 12.994500 -0.242716 -4.980390 90.182300 -0.515635 -70.524600 -5.348130 -0.000001 -0.000004 -73.407700 -34.778000 -92.687100 -24.328900 0.000322 -0.000009 17.209400 0.146264 -89.528800 -22.291500 -0.000108 -0.000004 21.996700 5.317810 -0.432912 -2.192480 -6.469440 -0.000000 -175.323000 -7.499960 -2.072640 39.081100 -0.000007 -0.000012 -0.100224 0.237450 22.883900 40.985400 -0.000006 -0.000013 0.313803 4.242360 -66.126600 11.754300 -0.000000 0.000003 -0.000042 -0.000491 -16.596600 -2.192510 6.469440 -0.000001 179.874000 13.792500 -179.463000 -39.081100 -0.002282 -0.040193 -0.015886 0.055421 19.116100 -40.985400 0.000008 0.000006 3.978610 7.850050 -65.332700 -11.754300 -0.000006 -0.000006 -0.008830 -0.094678 -20.429300
0.000000 0.000000 0.000000 0.000000 0.000000 -0.000000 -0.082024 92.382600 -1.169280 87.773900 -1.283430 4.891050 15.735700 0.000005 -0.000001 89.769400 86.078300 -90.021600 8.984550 -0.406207 -0.000000 0.077351 -0.014642 -0.504084 16.377300 -0.000001 -0.000001 3.257120 -2.582820 2.671480 6.456720 -0.000001 -0.000000 5.718130 -3.223670 -2.255880 12.994200 -0.242716 4.980390 -89.620100 -1.142830 -71.609300 5.348090 -0.000007 -0.000001 -70.686500 36.993000 -10.725700 24.328600 0.000019 0.000005 1.692930 4.269050 -21.654600 22.291600 -0.000001 0.000005 5.728370 5.474790 -5.550310 12.994500 -0.242716 -4.980390 90.139900 -0.395235 -70.504100 -5.348130 -0.000001 -0.000004 -70.871400 -35.333100 -89.003300 -24.328900 0.000322 -0.000009 16.765200 -0.505636 -91.679500 -22.291500 -0.000108 -0.000004 22.140600 5.321920 -0.550947 -2.192480 -6.469440 -0.000000 -175.387000 -7.440270 -2.047100 39.081100 -0.000007 -0.000012 -0.099035 0.235000 22.851900 40.985400 -0.000006 -0.000013 0.317083 4.125430 -66.110200 11.754300 -0.000000 0.000003 -0.000034 -0.000406 -16.593400 -2.192510 6.469440 -0.000001 179.821000 13.788500 -179.475000 -39.081100 -0.002282 -0.040193 -0.015762 0.054984 19.141700 -40.985400 0.000008 0.000006 4.031240 7.901450 -65.342600 -11.754300 -0.000006 -0.000006 -0.009409 -0.099167 -20.612800
